<svg width="86" height="28" viewBox="0 0 86 28" fill="none" xmlns="http://www.w3.org/2000/svg">
<path d="M38.6063 12.1617C39.1765 12.1617 39.6692 12.2617 40.0832 12.4579C40.4992 12.656 40.8424 12.9229 41.1178 13.2586C41.3894 13.596 41.5916 13.9903 41.7221 14.4423C41.8518 14.8955 41.9168 15.3827 41.9168 15.9043C41.9168 16.7054 41.7667 17.4623 41.4637 18.1758C41.1606 18.8903 40.7495 19.5101 40.2265 20.0388C39.7039 20.5668 39.0869 20.983 38.3753 21.2906C37.6649 21.5983 36.8924 21.7522 36.0631 21.7522C35.9559 21.7522 35.7673 21.7492 35.501 21.7438C35.2346 21.7384 34.9285 21.7116 34.5857 21.6662C34.2407 21.6192 33.8759 21.5495 33.4907 21.4563C33.1057 21.3647 32.74 21.2364 32.3957 21.0735L35.4748 8.42092L38.2327 8.00293L37.1302 12.4929C37.3662 12.3889 37.604 12.3083 37.8413 12.2496C38.0789 12.1918 38.3338 12.1617 38.6063 12.1617ZM36.293 19.6126C36.7083 19.6126 37.0997 19.5127 37.4673 19.3165C37.836 19.1201 38.1542 18.8549 38.4208 18.5246C38.6874 18.1928 38.8983 17.819 39.0521 17.4015C39.206 16.9839 39.2838 16.5483 39.2838 16.0951C39.2838 15.5383 39.1886 15.104 38.999 14.79C38.8093 14.4773 38.4584 14.32 37.9488 14.32C37.7818 14.32 37.5666 14.3512 37.2998 14.4068C37.0322 14.4659 36.7927 14.5886 36.578 14.7732L35.4041 19.5415C35.4748 19.5537 35.5375 19.5653 35.5909 19.5763C35.6432 19.5881 35.701 19.5965 35.7585 19.6023C35.8194 19.609 35.8891 19.6124 35.9732 19.6124C36.0574 19.6124 36.1626 19.6126 36.293 19.6126Z" fill="#4D4D4D"/>
<path d="M44.7775 21.5089H42.1433L44.3678 12.3547H47.02L44.7775 21.5089ZM46.0593 11.2394C45.6916 11.2394 45.3583 11.1323 45.0625 10.9179C44.7643 10.7047 44.6166 10.3765 44.6166 9.93426C44.6166 9.69099 44.6671 9.46276 44.7673 9.24743C44.8691 9.03253 45.002 8.8475 45.1686 8.69019C45.335 8.53417 45.5277 8.40953 45.7466 8.31561C45.9667 8.22321 46.201 8.177 46.4506 8.177C46.8181 8.177 47.1497 8.28402 47.4465 8.4985C47.7423 8.71404 47.8911 9.0422 47.8911 9.48211C47.8911 9.72624 47.8408 9.95532 47.7397 10.1702C47.6393 10.3851 47.5063 10.5702 47.3397 10.7275C47.1747 10.8837 46.9802 11.0079 46.7618 11.101C46.5414 11.1949 46.308 11.2394 46.0593 11.2394Z" fill="#4D4D4D"/>
<path d="M49.3281 10.0745L52.087 9.65649L51.4095 12.3548H54.3643L53.8307 14.4776H50.8938L50.1115 17.6797C50.0394 17.9466 49.9985 18.1959 49.9871 18.4275C49.9741 18.6603 50.0042 18.8601 50.0754 19.0284C50.1462 19.1971 50.2734 19.3271 50.458 19.4191C50.6417 19.5126 50.9048 19.5596 51.2498 19.5596C51.5339 19.5596 51.8108 19.5332 52.0785 19.4808C52.3446 19.4292 52.6142 19.3574 52.8871 19.2635L53.0836 21.2483C52.7276 21.376 52.3422 21.4858 51.9268 21.5782C51.5108 21.6719 51.0184 21.717 50.4492 21.717C49.6309 21.717 48.9965 21.5982 48.5444 21.3616C48.0931 21.1233 47.774 20.7977 47.583 20.3855C47.3947 19.9748 47.3105 19.5014 47.3341 18.968C47.3584 18.4333 47.4409 17.8714 47.583 17.2795L49.3281 10.0745Z" fill="#4D4D4D"/>
<path d="M54.248 17.8547C54.248 17.0662 54.3786 16.3226 54.6394 15.6266C54.8998 14.9298 55.2749 14.3206 55.7617 13.7977C56.2467 13.2775 56.8376 12.8653 57.5331 12.5627C58.2253 12.2618 59.0004 12.1101 59.8545 12.1101C60.3892 12.1101 60.8667 12.1595 61.2869 12.2586C61.7088 12.3585 62.0905 12.4877 62.4357 12.6497L61.5273 14.6698C61.2899 14.5757 61.0436 14.4927 60.7889 14.4175C60.534 14.3408 60.2228 14.3038 59.8548 14.3038C58.9755 14.3038 58.2805 14.6002 57.7632 15.191C57.2479 15.7821 56.9883 16.5779 56.9883 17.5762C56.9883 18.1678 57.1189 18.6462 57.3808 19.0121C57.6414 19.3781 58.1229 19.5601 58.8219 19.5601C59.1669 19.5601 59.4999 19.5249 59.8187 19.4561C60.14 19.3865 60.4237 19.2988 60.6735 19.1952L60.8702 21.266C60.5371 21.3924 60.1697 21.5065 59.7666 21.6064C59.3627 21.7029 58.8819 21.753 58.3244 21.753C57.5885 21.753 56.9655 21.6477 56.4559 21.4403C55.9461 21.2297 55.5248 20.9501 55.193 20.596C54.8594 20.2409 54.6199 19.8264 54.4718 19.3506C54.3236 18.8752 54.248 18.3758 54.248 17.8547Z" fill="#4D4D4D"/>
<path d="M65.9493 21.7523C65.3206 21.7523 64.7745 21.6586 64.3113 21.4731C63.8493 21.2877 63.4668 21.0274 63.1642 20.69C62.8611 20.3543 62.6343 19.9565 62.479 19.4982C62.3236 19.04 62.2489 18.5326 62.2489 17.9766C62.2489 17.2793 62.3634 16.5821 62.5948 15.8869C62.8251 15.1902 63.1668 14.5642 63.619 14.0078C64.0678 13.4506 64.6213 12.995 65.2731 12.6398C65.9242 12.2869 66.6731 12.1094 67.5143 12.1094C68.1316 12.1094 68.6748 12.2033 69.1444 12.3887C69.6118 12.5738 69.9968 12.8362 70.3012 13.1719C70.6023 13.5093 70.831 13.9053 70.9848 14.3643C71.1398 14.8217 71.2162 15.3303 71.2162 15.8867C71.2162 16.5819 71.1033 17.2791 70.8791 17.9764C70.6548 18.6704 70.3219 19.2979 69.8824 19.8555C69.4437 20.4119 68.8952 20.8673 68.2364 21.221C67.5785 21.5748 66.8155 21.7523 65.9493 21.7523ZM67.2658 14.3033C66.8753 14.3033 66.5301 14.4142 66.2345 14.6332C65.9378 14.8548 65.6886 15.1333 65.4878 15.4692C65.2847 15.8066 65.1342 16.1745 65.0325 16.5744C64.9316 16.9752 64.8822 17.3541 64.8822 17.714C64.8822 18.2949 64.978 18.7473 65.1663 19.0729C65.3573 19.3967 65.7003 19.5596 66.1989 19.5596C66.5907 19.5596 66.9342 19.4496 67.2315 19.2282C67.5264 19.0084 67.7758 18.7297 67.9782 18.3931C68.18 18.0574 68.3318 17.6885 68.4335 17.2879C68.5331 16.8884 68.5838 16.5074 68.5838 16.148C68.5838 15.5687 68.4885 15.1152 68.2984 14.7901C68.1085 14.4662 67.764 14.3033 67.2658 14.3033Z" fill="#4D4D4D"/>
<path d="M74.0876 21.5089H71.4512L73.6758 12.3547H76.3292L74.0876 21.5089ZM75.3674 11.2394C75 11.2394 74.6668 11.1323 74.3715 10.9179C74.0748 10.7047 73.9258 10.3765 73.9258 9.93426C73.9258 9.69099 73.977 9.46276 74.0775 9.24743C74.1779 9.03253 74.3117 8.8475 74.4783 8.69019C74.6438 8.53417 74.8382 8.40953 75.0567 8.31561C75.2755 8.22321 75.5098 8.177 75.7586 8.177C76.1269 8.177 76.4596 8.28402 76.7558 8.4985C77.0522 8.71404 77.2019 9.0422 77.2019 9.48211C77.2019 9.72624 77.1487 9.95532 77.0491 10.1702C76.9496 10.3851 76.8158 10.5702 76.6499 10.7275C76.4829 10.8837 76.2908 11.0079 76.0719 11.101C75.8513 11.1949 75.6175 11.2394 75.3674 11.2394Z" fill="#4D4D4D"/>
<path d="M78.2265 12.7718C78.4265 12.7147 78.6498 12.6459 78.8926 12.5711C79.1363 12.4963 79.4086 12.4267 79.7127 12.3639C80.0136 12.2993 80.3531 12.2468 80.7264 12.2062C81.0998 12.1647 81.5252 12.1445 81.9979 12.1445C83.3872 12.1445 84.3448 12.5402 84.8736 13.3291C85.4018 14.118 85.4932 15.1977 85.1504 16.5662L83.9387 21.5089H81.2872L82.4616 16.6702C82.5332 16.368 82.5895 16.076 82.631 15.7906C82.673 15.5078 82.6706 15.2585 82.6215 15.0427C82.5747 14.8295 82.4644 14.655 82.2932 14.5198C82.1194 14.3868 81.8568 14.32 81.5006 14.32C81.1571 14.32 80.8077 14.3561 80.4511 14.4257L78.7245 21.5087H76.0719L78.2265 12.7718Z" fill="#4D4D4D"/>
<path d="M27.581 17.3868C25.7109 24.8868 18.1138 29.4511 10.612 27.5809C3.11334 25.711 -1.45158 18.1143 0.419371 10.6148C2.28857 3.11392 9.88569 -1.45091 17.3852 0.418944C24.8865 2.2888 29.451 9.88635 27.581 17.3868Z" fill="#F7931A"/>
<path d="M20.9634 11.2363C21.2547 9.34497 19.7721 8.32821 17.7449 7.64993L18.4025 5.08783L16.7969 4.69916L16.1567 7.19374C15.7346 7.09158 15.301 6.99519 14.8702 6.89969L15.5151 4.38867L13.9104 4L13.2523 6.56121C12.9029 6.48392 12.5599 6.40752 12.227 6.32712L12.2288 6.31913L10.0146 5.7821L9.58744 7.44782C9.58744 7.44782 10.7787 7.713 10.7536 7.72944C11.4039 7.88713 11.5214 8.30511 11.5017 8.63648L10.7527 11.5553C10.7975 11.5664 10.8556 11.5824 10.9196 11.6072C10.8661 11.5944 10.8089 11.5801 10.7499 11.5664L9.69994 15.6552C9.62037 15.8471 9.4187 16.1349 8.96413 16.0256C8.98014 16.0483 7.79708 15.7427 7.79708 15.7427L7 17.5279L9.08944 18.0338C9.47815 18.1284 9.85908 18.2275 10.2341 18.3208L9.5696 20.9122L11.1734 21.3008L11.8314 18.737C12.2695 18.8525 12.6948 18.9591 13.111 19.0595L12.4552 21.6113L14.0608 22L14.7253 19.4135C17.4632 19.9167 19.522 19.7137 20.3886 17.3084C21.0869 15.3718 20.3538 14.2546 18.9133 13.5261C19.9624 13.2912 20.7526 12.6209 20.9634 11.2363ZM17.2949 16.2331C16.7987 18.1697 13.4416 17.1228 12.3532 16.8603L13.2349 13.4271C14.3233 13.6909 17.8135 14.2133 17.2949 16.2331ZM17.7915 11.2084C17.3388 12.97 14.5446 12.075 13.6383 11.8555L14.4376 8.74175C15.344 8.96118 18.263 9.37073 17.7915 11.2084Z" fill="white"/>
</svg>
