<svg width="123" height="28" viewBox="0 0 123 28" fill="none" xmlns="http://www.w3.org/2000/svg">
<path d="M5.92638 13.2875C5.92641 13.1311 5.95788 12.9763 6.01899 12.832C6.08009 12.6876 6.16963 12.5565 6.28246 12.4462C6.39529 12.336 6.52918 12.2487 6.67646 12.1893C6.82373 12.13 6.98149 12.0999 7.14066 12.1006L9.15381 12.1071C9.4748 12.1071 9.78264 12.2323 10.0096 12.4552C10.2366 12.6782 10.3641 12.9805 10.3641 13.2958V20.7727C10.5908 20.7067 10.881 20.6363 11.2003 20.5625C11.4215 20.5114 11.6187 20.3883 11.7598 20.2134C11.9009 20.0384 11.9778 19.8218 11.9778 19.5985V10.3246C11.9778 10.0093 12.1053 9.70694 12.3323 9.48398C12.5593 9.26102 12.8671 9.13573 13.1881 9.13567H15.2074C15.5284 9.13573 15.8362 9.26102 16.0632 9.48398C16.2901 9.70694 16.4176 10.0093 16.4176 10.3246V18.9323C16.4176 18.9323 16.9228 18.7315 17.4146 18.5275C17.5973 18.4516 17.7533 18.3246 17.863 18.1622C17.9726 17.9998 18.0312 17.8093 18.0314 17.6144V7.35275C18.0314 7.03752 18.1588 6.73521 18.3858 6.51229C18.6127 6.28938 18.9205 6.16411 19.2414 6.16405H21.2586C21.5793 6.16436 21.8869 6.28973 22.1136 6.51262C22.3403 6.73551 22.4677 7.03768 22.4677 7.35275V15.8028C24.2165 14.5581 25.9888 13.0608 27.3953 11.2606C27.5993 10.9993 27.7344 10.6924 27.7883 10.3674C27.8423 10.0424 27.8135 9.70927 27.7045 9.39783C27.0534 7.55816 26.0185 5.87224 24.666 4.44794C23.3135 3.02365 21.6731 1.89235 19.8499 1.12643C18.0266 0.360522 16.0607 -0.0231368 14.0778 1.1934e-05C12.0949 0.0231606 10.1388 0.452605 8.33462 1.26087C6.53044 2.06913 4.91791 3.2384 3.60023 4.69387C2.28255 6.14934 1.28874 7.85895 0.682382 9.71329C0.0760285 11.5676 -0.129511 13.5259 0.0789166 15.4627C0.287344 17.3996 0.905148 19.2724 1.89279 20.9612C2.06486 21.2526 2.31802 21.4897 2.62252 21.6446C2.92702 21.7995 3.2702 21.8659 3.61177 21.8359C3.99335 21.8029 4.46844 21.7562 5.03329 21.6912C5.27912 21.6637 5.50608 21.5484 5.67095 21.3672C5.83581 21.186 5.92706 20.9516 5.92732 20.7086V13.2875" fill="#12161C"/>
<path d="M5.88336 25.2785C8.00958 26.7977 10.5223 27.7096 13.1434 27.9133C15.7645 28.117 18.3919 27.6045 20.7349 26.4326C23.0779 25.2607 25.0452 23.475 26.4191 21.2732C27.7929 19.0713 28.5198 16.5391 28.5193 13.9567C28.5193 13.6336 28.504 13.3156 28.4822 12.9985C23.2747 20.6266 13.6596 24.1927 5.88336 25.2785Z" fill="#F0B90B"/>
<path opacity="0.8" d="M36.4342 23.3583H34.4394L34.087 24.3414H33.0367L34.8694 19.509H36.0042L37.8299 24.3414H36.7796L36.4342 23.3583ZM36.1664 22.6175L35.4333 20.5544L34.7002 22.6175H36.1664ZM42.9403 20.4575C43.2529 20.4532 43.5605 20.5347 43.8285 20.6929C44.0974 20.8562 44.3119 21.0932 44.4452 21.3748C44.6 21.7032 44.6759 22.062 44.6673 22.4237C44.6759 22.7854 44.6 23.1442 44.4452 23.4725C44.3119 23.7541 44.0974 23.9912 43.8285 24.1544C43.5605 24.3127 43.2529 24.3942 42.9403 24.3898C42.6419 24.3981 42.3481 24.3168 42.098 24.1568C41.8697 24.0076 41.6957 23.791 41.601 23.5383V26.1691H40.6071V20.506H41.601V21.3021C41.6949 21.0496 41.8692 20.8335 42.098 20.686C42.349 20.5285 42.6425 20.4489 42.9403 20.4575ZM42.6302 21.3091C42.4917 21.3048 42.3538 21.3293 42.2257 21.381C42.0975 21.4327 41.9819 21.5104 41.8865 21.6091C41.683 21.8318 41.5778 22.1248 41.594 22.4237C41.5863 22.5706 41.6083 22.7175 41.6584 22.8561C41.7086 22.9947 41.7861 23.1222 41.8865 23.2314C41.9819 23.33 42.0975 23.4077 42.2257 23.4594C42.3538 23.5111 42.4917 23.5356 42.6302 23.5314C42.7688 23.5372 42.9072 23.514 43.036 23.4633C43.1648 23.4125 43.2812 23.3354 43.3773 23.2371C43.5758 23.0125 43.677 22.7206 43.6593 22.4237C43.6765 22.1258 43.5755 21.8329 43.3773 21.6067C43.2817 21.5075 43.1656 21.4296 43.0367 21.3782C42.9078 21.3269 42.7691 21.3033 42.6302 21.3091ZM46.7185 21.2398C46.8576 21.0017 47.0566 20.8027 47.2965 20.6617C47.5395 20.5201 47.8175 20.447 48.1001 20.4506V21.496H47.8111C47.0827 21.496 46.7185 21.8283 46.7185 22.4929V24.3414H45.7246V20.506H46.7185V21.2398ZM50.8068 20.4575C51.1632 20.4519 51.5155 20.5327 51.8324 20.6929C52.1331 20.8475 52.3816 21.0843 52.5479 21.3748C52.7277 21.6957 52.8177 22.0576 52.8087 22.4237C52.818 22.7887 52.728 23.1496 52.5479 23.4691C52.3802 23.7585 52.1321 23.9951 51.8324 24.151C51.5162 24.3133 51.1636 24.3954 50.8068 24.3898C50.45 24.3954 50.0975 24.3133 49.7812 24.151C49.4816 23.9951 49.2334 23.7585 49.0658 23.4691C48.8857 23.1496 48.7957 22.7887 48.805 22.4237C48.796 22.0576 48.886 21.6957 49.0658 21.3748C49.2321 21.0843 49.4806 20.8475 49.7812 20.6929C50.0982 20.5327 50.4504 20.4519 50.8068 20.4575ZM50.8068 21.3021C50.6755 21.2997 50.5451 21.324 50.4238 21.3735C50.3025 21.4229 50.1929 21.4964 50.1019 21.5894C49.9997 21.7026 49.9215 21.8347 49.8719 21.978C49.8223 22.1212 49.8022 22.2727 49.8129 22.4237C49.8024 22.5744 49.8225 22.7257 49.8721 22.8688C49.9218 23.0118 49.9999 23.1437 50.1019 23.2568C50.1929 23.3497 50.3025 23.4233 50.4238 23.4727C50.5451 23.5222 50.6755 23.5464 50.8068 23.5441C50.9381 23.5464 51.0685 23.5222 51.1898 23.4727C51.3111 23.4233 51.4207 23.3497 51.5117 23.2568C51.6138 23.1437 51.6919 23.0118 51.7415 22.8688C51.7911 22.7257 51.8113 22.5744 51.8007 22.4237C51.8114 22.2727 51.7914 22.1212 51.7417 21.978C51.6921 21.8347 51.6139 21.7026 51.5117 21.5894C51.4207 21.4964 51.3111 21.4229 51.1898 21.3735C51.0685 21.324 50.9381 21.2997 50.8068 21.3021ZM55.3956 20.4575C55.6934 20.4489 55.9869 20.5285 56.238 20.686C56.4675 20.8345 56.6437 21.05 56.742 21.3021V19.2183H57.7288V24.3414H56.742V23.5383C56.6427 23.7908 56.4662 24.0068 56.2368 24.1568C55.987 24.3166 55.6936 24.3979 55.3956 24.3898C55.083 24.3942 54.7754 24.3127 54.5075 24.1544C54.2385 23.9912 54.0241 23.7541 53.8907 23.4725C53.736 23.1442 53.66 22.7854 53.6687 22.4237C53.66 22.062 53.736 21.7032 53.8907 21.3748C54.0241 21.0932 54.2385 20.8562 54.5075 20.6929C54.7754 20.5347 55.083 20.4532 55.3956 20.4575ZM55.7058 21.3091C55.5668 21.3033 55.4282 21.3269 55.2993 21.3782C55.1704 21.4296 55.0542 21.5075 54.9586 21.6067C54.7605 21.8329 54.6594 22.1258 54.6766 22.4237C54.659 22.7206 54.7602 23.0125 54.9586 23.2371C55.0547 23.3354 55.1711 23.4125 55.2999 23.4633C55.4288 23.514 55.5671 23.5372 55.7058 23.5314C55.8441 23.5353 55.9818 23.5105 56.1098 23.4587C56.2377 23.4068 56.353 23.3289 56.4482 23.2302C56.5486 23.121 56.6261 22.9935 56.6763 22.8549C56.7265 22.7164 56.7484 22.5694 56.7408 22.4225C56.7564 22.1244 56.6512 21.8324 56.4482 21.6102C56.353 21.5115 56.2377 21.4337 56.1098 21.3818C55.9818 21.3299 55.8441 21.3051 55.7058 21.3091ZM62.7194 20.506V24.3414H61.7255V23.566C61.6277 23.8177 61.4481 24.0306 61.2144 24.1718C60.9671 24.32 60.6818 24.3957 60.3921 24.3898C60.1908 24.3987 59.99 24.3642 59.8037 24.2889C59.6174 24.2136 59.4502 24.0992 59.3136 23.9537C59.0278 23.6119 58.8843 23.1766 58.9118 22.7352V20.506H59.8987V22.6244C59.8823 22.8825 59.9682 23.1368 60.1383 23.3341C60.2217 23.4194 60.3227 23.4862 60.4346 23.53C60.5464 23.5738 60.6665 23.5935 60.7868 23.5879C60.9138 23.5938 61.0407 23.5727 61.1586 23.5261C61.2766 23.4795 61.383 23.4085 61.4706 23.3179C61.6528 23.1007 61.7436 22.8233 61.7243 22.5425V20.5071L62.7194 20.506ZM65.7292 20.4575C66.1837 20.4418 66.6292 20.584 66.9874 20.8591C67.3281 21.1346 67.5529 21.5242 67.6183 21.9529H66.568C66.534 21.7635 66.4314 21.5926 66.279 21.4717C66.1153 21.3497 65.9135 21.2873 65.7081 21.2952C65.5835 21.2928 65.4599 21.3173 65.3461 21.367C65.2322 21.4166 65.1308 21.4902 65.049 21.5825C64.857 21.8206 64.7627 22.1207 64.7847 22.4237C64.7624 22.7265 64.8563 23.0266 65.0478 23.2648C65.1297 23.3573 65.2313 23.431 65.3454 23.4806C65.4595 23.5303 65.5833 23.5547 65.7081 23.5521C65.9135 23.56 66.1153 23.4976 66.279 23.3756C66.4314 23.2547 66.534 23.0838 66.568 22.8944H67.6183C67.5529 23.3231 67.3281 23.7128 66.9874 23.9883C66.6292 24.2634 66.1837 24.4055 65.7292 24.3898C65.3757 24.3963 65.0264 24.3141 64.7142 24.151C64.4211 23.9947 64.181 23.7577 64.0234 23.4691C63.8524 23.1467 63.7675 22.787 63.7767 22.4237C63.7678 22.0592 63.8526 21.6985 64.0234 21.3748C64.1797 21.0852 64.4201 20.8478 64.7142 20.6929C65.0271 20.532 65.3761 20.451 65.7292 20.4575ZM70.7621 23.5037V24.3414H70.2405C69.8777 24.3655 69.5189 24.2543 69.236 24.0298C69.0034 23.8221 68.8871 23.476 68.8871 22.9914V21.3298H68.3444V20.506H68.8871V19.5575H69.881V20.506H70.7551V21.3298H69.881V23.0052C69.8663 23.1439 69.9067 23.2828 69.9938 23.3929C70.1011 23.4772 70.2377 23.5169 70.3744 23.5037H70.7621ZM75.5201 20.4575C75.8765 20.4519 76.2288 20.5327 76.5457 20.6929C76.8463 20.8475 77.0948 21.0843 77.2611 21.3748C77.4409 21.6957 77.5309 22.0576 77.5219 22.4237C77.5312 22.7887 77.4412 23.1496 77.2611 23.4691C77.0935 23.7585 76.8453 23.9951 76.5457 24.151C76.2294 24.3133 75.8769 24.3954 75.5201 24.3898C75.1629 24.3956 74.8099 24.3135 74.4933 24.151C74.1941 23.9949 73.9464 23.7584 73.779 23.4691C73.5989 23.1496 73.5089 22.7887 73.5182 22.4237C73.5092 22.0576 73.5992 21.6957 73.779 21.3748C73.945 21.0845 74.1931 20.8476 74.4933 20.6929C74.8106 20.5325 75.1633 20.4517 75.5201 20.4575ZM75.5201 21.3021C75.3888 21.2997 75.2584 21.324 75.1371 21.3735C75.0158 21.4229 74.9062 21.4964 74.8152 21.5894C74.713 21.7026 74.6348 21.8347 74.5852 21.978C74.5355 22.1212 74.5155 22.2727 74.5262 22.4237C74.5156 22.5744 74.5358 22.7257 74.5854 22.8688C74.635 23.0118 74.7131 23.1437 74.8152 23.2568C74.9062 23.3497 75.0158 23.4233 75.1371 23.4727C75.2584 23.5222 75.3888 23.5464 75.5201 23.5441C75.6514 23.5464 75.7818 23.5222 75.9031 23.4727C76.0244 23.4233 76.134 23.3497 76.225 23.2568C76.327 23.1437 76.4051 23.0118 76.4548 22.8688C76.5044 22.7257 76.5245 22.5744 76.514 22.4237C76.5247 22.2727 76.5046 22.1212 76.455 21.978C76.4054 21.8347 76.3272 21.7026 76.225 21.5894C76.134 21.4964 76.0244 21.4229 75.9031 21.3735C75.7818 21.324 75.6514 21.2997 75.5201 21.3021ZM80.5107 19.8414C80.2975 19.8046 80.0782 19.8492 79.8974 19.966C79.8314 20.0376 79.7816 20.1221 79.7512 20.214C79.7208 20.3059 79.7106 20.403 79.7212 20.4991V20.506H80.5107V21.3298H79.7212V24.3414H78.7273V21.3298H78.2268V20.506H78.7273V20.416C78.7147 20.2224 78.7436 20.0284 78.8122 19.8465C78.8808 19.6647 78.9876 19.499 79.1256 19.3602C79.4555 19.0914 79.8787 18.9587 80.3062 18.9898C80.3955 18.9898 80.4637 18.9921 80.5107 18.9967V19.8414ZM84.5144 20.3883V21.4129H86.1991V22.306H84.5144V23.3929H86.4105V24.3414H83.3091V19.4467H86.4105V20.3883H84.5144ZM89.6742 23.3237V24.3414H89.1314C88.743 24.3649 88.3597 24.2451 88.0564 24.0056C87.8003 23.7818 87.6723 23.4114 87.6723 22.8944V21.4752H87.1436V20.4783H87.6723V19.5298H88.8776V20.4783H89.6671V21.4752H88.8776V22.9152C88.8648 23.0294 88.8986 23.1439 88.9716 23.2337C89.0631 23.3025 89.1777 23.3346 89.2924 23.3237H89.6742ZM93.1986 20.4367C93.4 20.4278 93.6009 20.4629 93.7868 20.5396C93.9727 20.6162 94.1389 20.7324 94.2735 20.8798C94.5562 21.2231 94.6986 21.6575 94.673 22.0983V24.3414H93.4676V22.2367C93.481 22.016 93.4065 21.7987 93.2597 21.631C93.1886 21.558 93.1024 21.5009 93.007 21.4632C92.9116 21.4256 92.8091 21.4085 92.7063 21.4129C92.5984 21.4078 92.4906 21.4255 92.3903 21.465C92.2899 21.5044 92.1994 21.5645 92.1248 21.6414C91.9709 21.8232 91.894 22.0562 91.9098 22.2921V24.3414H90.7045V19.2183H91.9098V21.1844C92.0192 20.9573 92.1946 20.767 92.4138 20.6375C92.6512 20.5001 92.9231 20.4305 93.1986 20.4367ZM99.5566 22.306C99.5556 22.413 99.5438 22.5197 99.5214 22.6244H96.7935C96.7841 22.854 96.8648 23.0783 97.0191 23.251C97.1604 23.3797 97.348 23.4482 97.5407 23.4414C97.6995 23.4474 97.8558 23.4011 97.9848 23.3098C98.0995 23.2262 98.1816 23.1065 98.2174 22.9706H99.4932C99.4438 23.2378 99.3275 23.4888 99.1549 23.701C98.9775 23.9183 98.7505 24.0914 98.4923 24.2064C98.2113 24.3318 97.9057 24.3949 97.5971 24.391C97.2402 24.3977 96.8873 24.3155 96.5715 24.1521C96.2744 23.994 96.0306 23.7542 95.8701 23.4621C95.6951 23.1385 95.6077 22.7762 95.6163 22.4098C95.6069 22.0427 95.693 21.6793 95.8666 21.3541C96.0267 21.0629 96.2707 20.8245 96.5679 20.6687C96.8852 20.5055 97.2391 20.4234 97.5971 20.4298C97.9548 20.4223 98.3087 20.5032 98.6262 20.6652C98.9156 20.8157 99.1543 21.0453 99.3135 21.3264C99.4798 21.6266 99.5636 21.9642 99.5566 22.306ZM98.3372 22.126C98.3475 22.0216 98.3342 21.9163 98.2983 21.8176C98.2623 21.7188 98.2046 21.6291 98.1292 21.5548C97.9832 21.4269 97.7927 21.3587 97.5971 21.3644C97.3953 21.3576 97.1986 21.427 97.0473 21.5583C96.8921 21.7082 96.8035 21.9122 96.8005 22.126H98.3372ZM101.742 21.2052C101.887 20.975 102.086 20.7826 102.323 20.6444C102.556 20.5071 102.823 20.4353 103.095 20.4367V21.7037H102.75C102.486 21.6878 102.224 21.7584 102.006 21.9044C101.911 21.9894 101.838 22.095 101.792 22.2128C101.746 22.3307 101.729 22.4574 101.742 22.5829V24.3414H100.536V20.4783H101.742V21.2052ZM105.386 20.4298C105.816 20.4082 106.24 20.5384 106.581 20.7967C106.88 21.0431 107.079 21.3872 107.141 21.766H106.013C105.987 21.6201 105.908 21.4885 105.79 21.3956C105.666 21.3026 105.513 21.2549 105.357 21.2606C105.246 21.253 105.136 21.2836 105.047 21.3471C105.011 21.3774 104.983 21.4153 104.965 21.4579C104.946 21.5005 104.938 21.5467 104.941 21.5929C104.941 21.652 104.96 21.7096 104.994 21.7579C105.029 21.8062 105.078 21.8428 105.135 21.8629C105.331 21.9434 105.536 22.0038 105.746 22.0429C105.997 22.0978 106.244 22.1683 106.486 22.2541C106.68 22.3268 106.852 22.4472 106.986 22.6037C107.135 22.7881 107.21 23.0195 107.198 23.2544C107.201 23.4647 107.137 23.6706 107.014 23.8429C106.88 24.023 106.697 24.1622 106.486 24.2444C106.226 24.3468 105.948 24.3963 105.668 24.3898C105.216 24.4121 104.768 24.2908 104.392 24.0437C104.232 23.9259 104.097 23.7774 103.997 23.6073C103.896 23.4372 103.832 23.2489 103.807 23.0537H104.97C104.975 23.1287 104.997 23.2017 105.035 23.2675C105.072 23.3333 105.123 23.3903 105.185 23.4344C105.328 23.5273 105.497 23.5734 105.668 23.566C105.78 23.5738 105.89 23.5405 105.978 23.4725C106.013 23.4417 106.041 23.4037 106.059 23.3612C106.077 23.3187 106.086 23.2728 106.084 23.2268C106.086 23.165 106.069 23.104 106.034 23.0525C105.999 23.0009 105.949 22.9614 105.89 22.9394C105.686 22.8589 105.475 22.7971 105.259 22.7548C105.015 22.7077 104.775 22.6429 104.54 22.561C104.352 22.4914 104.184 22.3758 104.054 22.2252C103.909 22.0457 103.836 21.8204 103.849 21.5917C103.845 21.4305 103.879 21.2704 103.949 21.1243C104.018 20.9783 104.122 20.8503 104.251 20.7506C104.58 20.5178 104.981 20.4044 105.386 20.4298ZM109.996 20.4298C110.457 20.4147 110.909 20.5607 111.272 20.8417C111.622 21.1283 111.853 21.5311 111.92 21.9737H110.644C110.615 21.8217 110.533 21.6845 110.412 21.586C110.285 21.4905 110.128 21.4416 109.968 21.4475C109.867 21.4457 109.768 21.467 109.677 21.5097C109.587 21.5523 109.508 21.6152 109.446 21.6933C109.296 21.9016 109.224 22.1542 109.242 22.4087C109.224 22.6635 109.296 22.9166 109.446 23.1252C109.507 23.2035 109.587 23.2666 109.677 23.3095C109.768 23.3523 109.867 23.3738 109.968 23.3721C110.128 23.3781 110.285 23.3291 110.412 23.2337C110.533 23.1351 110.615 22.998 110.644 22.846H111.92C111.852 23.2882 111.622 23.6905 111.272 23.9768C110.91 24.2583 110.458 24.4046 109.996 24.3898C109.639 24.3965 109.286 24.3143 108.97 24.151C108.673 23.9931 108.43 23.7538 108.269 23.4621C108.094 23.1385 108.007 22.7762 108.015 22.4098C108.006 22.0427 108.092 21.6793 108.265 21.3541C108.426 21.0629 108.67 20.8245 108.967 20.6687C109.284 20.5055 109.638 20.4234 109.996 20.4298ZM114.394 20.4298C114.667 20.4224 114.936 20.4921 115.17 20.6306C115.383 20.7606 115.55 20.9515 115.649 21.1775V20.4783H116.847V24.3414H115.649V23.6421C115.55 23.8682 115.383 24.059 115.17 24.1891C114.936 24.3276 114.667 24.3972 114.394 24.3898C114.087 24.3944 113.785 24.3115 113.524 24.151C113.26 23.9824 113.049 23.7435 112.918 23.4621C112.763 23.1325 112.687 22.7726 112.696 22.4098C112.687 22.0459 112.763 21.6847 112.918 21.3541C113.05 21.0741 113.26 20.8365 113.524 20.6687C113.785 20.5082 114.087 20.4252 114.394 20.4298ZM114.782 21.4683C114.666 21.4636 114.55 21.4834 114.443 21.5264C114.335 21.5694 114.238 21.6346 114.158 21.7175C113.991 21.9096 113.907 22.1578 113.922 22.4098C113.907 22.6619 113.991 22.91 114.158 23.1021C114.238 23.1851 114.335 23.2503 114.443 23.2933C114.55 23.3363 114.666 23.3561 114.782 23.3514C114.899 23.355 115.015 23.334 115.122 23.2898C115.23 23.2456 115.327 23.1793 115.406 23.0952C115.575 22.9065 115.662 22.6607 115.649 22.4098C115.663 22.1578 115.576 21.9104 115.406 21.721C115.326 21.6378 115.229 21.5723 115.122 21.5287C115.014 21.4851 114.898 21.4645 114.782 21.4683ZM120.527 20.4367C120.728 20.4278 120.929 20.4629 121.115 20.5396C121.301 20.6162 121.467 20.7324 121.602 20.8798C121.885 21.2231 122.027 21.6575 122.001 22.0983V24.3414H120.796V22.2367C120.809 22.016 120.735 21.7987 120.588 21.631C120.517 21.558 120.431 21.5009 120.335 21.4632C120.24 21.4256 120.137 21.4085 120.035 21.4129C119.927 21.4078 119.819 21.4255 119.719 21.465C119.618 21.5044 119.528 21.5645 119.453 21.6414C119.299 21.8232 119.222 22.0562 119.238 22.2921V24.3414H118.032V20.4783H119.237V21.1844C119.346 20.9573 119.522 20.767 119.741 20.6375C119.979 20.4998 120.251 20.4303 120.527 20.4367Z" fill="#12161C"/>
<path d="M40.3191 9.0625C41.0008 9.18321 41.616 9.53984 42.0531 10.0677C42.4861 10.5904 42.7168 11.2467 42.7044 11.9204C42.7255 12.3587 42.646 12.7961 42.4718 13.2002C42.2976 13.6043 42.033 13.9647 41.6978 14.2548C41.0268 14.8253 40.054 15.1105 38.7796 15.1105H33.6537V3.38002H38.6781C39.8842 3.38002 40.8119 3.64033 41.461 4.16095C42.1101 4.68156 42.4344 5.41233 42.4337 6.35326C42.4617 7.00043 42.2549 7.63634 41.8501 8.14773C41.4599 8.61409 40.9201 8.93661 40.3191 9.0625ZM36.039 8.29819H38.1866C38.6737 8.33211 39.1572 8.19359 39.5493 7.90773C39.7078 7.76718 39.8319 7.59335 39.9124 7.39916C39.993 7.20498 40.0279 6.99546 40.0146 6.78619C40.0276 6.57633 39.9934 6.36624 39.9145 6.17082C39.8355 5.97539 39.7137 5.79943 39.5578 5.65541C39.2533 5.38957 38.7852 5.25664 38.1537 5.25664H36.039V8.29819ZM38.3059 13.1997C38.8242 13.2332 39.3383 13.0894 39.7608 12.7927C39.9332 12.6467 40.0688 12.4635 40.1569 12.2573C40.2449 12.0512 40.2831 11.8277 40.2683 11.6047C40.2816 11.3784 40.242 11.1522 40.1524 10.9434C40.0627 10.7345 39.9256 10.5487 39.7514 10.4C39.3299 10.0935 38.8115 9.9434 38.2881 9.97635H36.039V13.1997H38.3059ZM47.6104 5.78926C48.7495 5.78926 49.663 6.07172 50.351 6.63665C51.0448 7.21146 51.5019 8.01472 51.6367 8.89634H49.4046C49.3319 8.4837 49.1169 8.1082 48.7955 7.83296C48.4474 7.55615 48.008 7.41428 47.5606 7.43419C47.2202 7.41337 46.8836 7.51364 46.6123 7.71665C46.5005 7.81047 46.412 7.92805 46.3533 8.06047C46.2947 8.1929 46.2676 8.33669 46.2739 8.48096C46.2695 8.59677 46.2915 8.71209 46.3384 8.81846C46.3852 8.92483 46.4557 9.01957 46.5446 9.09573C46.7431 9.26066 46.9732 9.38495 47.2213 9.46127C47.492 9.54988 47.8811 9.65512 48.3886 9.77696C48.9783 9.89739 49.5579 10.0612 50.1226 10.2671C50.5697 10.4396 50.9656 10.7195 51.2739 11.0813C51.6145 11.5087 51.7858 12.043 51.7561 12.585C51.7652 12.9539 51.6847 13.3196 51.5213 13.6519C51.3578 13.9842 51.1161 14.2735 50.8162 14.4957C50.1903 14.9825 49.3472 15.2259 48.2871 15.2259C47.069 15.2259 46.0935 14.9576 45.3604 14.421C44.9916 14.1453 44.6832 13.7994 44.4536 13.404C44.224 13.0086 44.0779 12.5718 44.0239 12.1197H46.3078C46.3276 12.3302 46.392 12.5343 46.4969 12.7188C46.6018 12.9034 46.7448 13.0644 46.9168 13.1914C47.317 13.4669 47.7989 13.6042 48.2871 13.5819C48.6236 13.6047 48.9563 13.5007 49.2175 13.2911C49.3235 13.1953 49.407 13.0782 49.4625 12.9477C49.518 12.8172 49.5441 12.6765 49.539 12.5351C49.5432 12.4137 49.5205 12.2928 49.4723 12.1808C49.4241 12.0689 49.3516 11.9687 49.2598 11.8871C49.0589 11.7127 48.8225 11.5824 48.5662 11.505C48.2899 11.4164 47.8983 11.3111 47.3914 11.1893C46.8146 11.0688 46.2466 10.9106 45.6912 10.7157C45.2581 10.5559 44.8737 10.2899 44.5747 9.94312C44.2438 9.52746 44.0785 9.00768 44.1095 8.48096C44.0997 8.10813 44.1787 7.73821 44.3402 7.40069C44.5018 7.06318 44.7414 6.7674 45.0399 6.53695C45.6596 6.03849 46.5164 5.78926 47.6104 5.78926ZM57.7438 5.78926C58.8345 5.75154 59.9038 6.09278 60.7635 6.75295C61.5811 7.41427 62.1205 8.34945 62.2776 9.37819H59.756C59.6742 8.92398 59.4278 8.51416 59.0624 8.22434C58.6694 7.93152 58.1851 7.78176 57.6921 7.80065C57.3932 7.79497 57.0966 7.85377 56.8233 7.97291C56.55 8.09205 56.3066 8.26863 56.1104 8.49019C55.6874 8.94988 55.476 9.62281 55.476 10.509C55.476 11.3951 55.6874 12.068 56.1104 12.5277C56.3066 12.7493 56.55 12.9259 56.8233 13.045C57.0966 13.1642 57.3932 13.223 57.6921 13.2173C58.1851 13.2362 58.6694 13.0864 59.0624 12.7936C59.4278 12.5038 59.6742 12.094 59.756 11.6397H62.2767C62.1195 12.6685 61.5802 13.6037 60.7626 14.265C59.9027 14.924 58.8338 15.2642 57.7438 15.2259C56.8955 15.2417 56.057 15.0447 55.3077 14.6536C54.6044 14.2785 54.0281 13.7097 53.6498 13.017C53.2394 12.2434 53.0356 11.3801 53.0577 10.508C53.0363 9.6334 53.24 8.76759 53.6498 7.9908C54.0249 7.29577 54.602 6.72606 55.3077 6.35418C56.0586 5.96799 56.8964 5.77371 57.7438 5.78926ZM72.1742 11.9047C72.1788 12.4864 72.0208 13.0582 71.7174 13.5579C71.3928 14.0802 70.9233 14.5009 70.3641 14.7708C69.6845 15.0926 68.9359 15.2487 68.1817 15.2259C67.4045 15.239 66.6329 15.0948 65.9148 14.8022C65.2804 14.5431 64.7286 14.1213 64.3171 13.581C63.9124 13.0377 63.6746 12.3919 63.632 11.72H66.1695C66.2138 12.1717 66.4207 12.593 66.7532 12.908C66.9316 13.0695 67.1408 13.1944 67.3688 13.2757C67.5968 13.357 67.8389 13.393 68.0812 13.3816C68.2885 13.3952 68.4964 13.3677 68.6926 13.3006C68.8888 13.2335 69.0692 13.1282 69.2231 12.9911C69.3556 12.859 69.4592 12.7017 69.5275 12.5288C69.5959 12.356 69.6276 12.1712 69.6207 11.9859C69.6332 11.6551 69.5184 11.3318 69.2992 11.0804C69.0736 10.8342 68.7967 10.6386 68.4872 10.5071C68.1601 10.3631 67.709 10.197 67.1338 10.0087C66.5075 9.81215 65.8969 9.57057 65.3068 9.28588C64.8244 9.04033 64.4095 8.68409 64.0972 8.24742C63.7435 7.72194 63.5687 7.09976 63.5981 6.47049C63.5785 6.01543 63.6687 5.56226 63.8612 5.14791C64.0538 4.73356 64.3433 4.36977 64.7062 4.08618C65.4449 3.50464 66.4233 3.21387 67.6413 3.21387C68.9045 3.21387 69.9111 3.51294 70.6611 4.1111C71.0294 4.40246 71.3329 4.76515 71.5524 5.17661C71.772 5.58806 71.903 6.03948 71.9374 6.5028H69.366C69.3113 6.10636 69.1207 5.74006 68.8255 5.46433C68.4948 5.17952 68.0636 5.03337 67.6244 5.05726C67.2388 5.03944 66.8598 5.16057 66.5586 5.39787C66.4194 5.52213 66.3105 5.67564 66.24 5.84697C66.1696 6.0183 66.1394 6.20303 66.1517 6.38741C66.1408 6.70145 66.2528 7.00764 66.4646 7.24311C66.6878 7.48045 66.9585 7.66995 67.2598 7.79973C67.6877 7.98326 68.1254 8.14411 68.5708 8.28157C69.2081 8.49513 69.8323 8.74478 70.4402 9.02927C70.9316 9.27213 71.3533 9.632 71.6667 10.076C72.0272 10.6174 72.2048 11.2566 72.1742 11.9028V11.9047ZM78.146 5.78926C79.2367 5.75154 80.3059 6.09278 81.1657 6.75295C81.9833 7.41427 82.5227 8.34945 82.6798 9.37819H80.1591C80.0773 8.92398 79.8309 8.51416 79.4655 8.22434C79.0725 7.93152 78.5882 7.78176 78.0952 7.80065C77.7963 7.79497 77.4997 7.85377 77.2264 7.97291C76.9531 8.09205 76.7097 8.26863 76.5135 8.49019C76.0906 8.94988 75.8791 9.62281 75.8791 10.509C75.8791 11.3951 76.0906 12.068 76.5135 12.5277C76.7097 12.7493 76.9531 12.9259 77.2264 13.045C77.4997 13.1642 77.7963 13.223 78.0952 13.2173C78.5882 13.2362 79.0725 13.0864 79.4655 12.7936C79.8309 12.5038 80.0773 12.094 80.1591 11.6397H82.6798C82.5222 12.6678 81.9829 13.6023 81.1657 14.2631C80.3058 14.923 79.2365 15.2639 78.146 15.2259C77.2976 15.2417 76.4592 15.0447 75.7099 14.6536C75.0066 14.2785 74.4303 13.7097 74.052 13.017C73.6415 12.2434 73.4378 11.3801 73.4599 10.508C73.4385 9.6334 73.6422 8.76759 74.052 7.9908C74.4271 7.29577 75.0042 6.72606 75.7099 6.35418C76.4608 5.96799 77.2986 5.77371 78.146 5.78926ZM88.0426 5.78926C88.7598 5.76936 89.4667 5.96029 90.0726 6.33757C90.6256 6.68962 91.0471 7.2086 91.2738 7.81634V5.90557H93.6422V15.1105H91.2738V13.1831C91.0459 13.7924 90.6248 14.3136 90.0726 14.6702C89.4685 15.0523 88.7608 15.246 88.0426 15.2259C87.2923 15.2364 86.554 15.0407 85.911 14.661C85.2655 14.2691 84.7509 13.7002 84.4307 13.0244C84.0594 12.2364 83.8771 11.3752 83.8979 10.5071C83.8771 9.63905 84.0594 8.77788 84.4307 7.98988C84.7509 7.31408 85.2655 6.74513 85.911 6.35326C86.5541 5.97386 87.2924 5.77852 88.0426 5.78926ZM88.7869 7.83296C88.4533 7.81923 88.1206 7.87599 87.8112 7.9994C87.5019 8.12282 87.2231 8.31002 86.9937 8.54834C86.5426 9.02527 86.317 9.67912 86.317 10.5099C86.317 11.3407 86.5426 11.9914 86.9937 12.4622C87.2245 12.6981 87.5037 12.8832 87.8129 13.0049C88.1221 13.1267 88.4541 13.1824 88.7869 13.1684C89.1196 13.1784 89.4508 13.1192 89.7585 12.9946C90.0663 12.87 90.3437 12.6829 90.5726 12.4456C91.0585 11.9171 91.311 11.221 91.2747 10.5099C91.3129 9.79352 91.0604 9.09149 90.5726 8.55757C90.3439 8.31989 90.0665 8.13244 89.7588 8.00755C89.451 7.88267 89.1198 7.82316 88.7869 7.83296ZM101.39 5.77264C101.873 5.7514 102.355 5.83407 102.802 6.01488C103.249 6.19569 103.651 6.47028 103.979 6.81942C104.621 7.51726 104.942 8.49757 104.942 9.76035V15.1105H102.574V10.0262C102.574 9.29511 102.382 8.72742 101.998 8.32311C101.795 8.11757 101.55 7.95711 101.278 7.85251C101.007 7.7479 100.715 7.70158 100.424 7.71665C100.122 7.70363 99.8204 7.75478 99.5401 7.86661C99.2598 7.97844 99.0074 8.14831 98.8 8.36465C98.394 8.79665 98.191 9.41696 98.191 10.2256V15.1105H95.8076V5.90557H98.1929V7.74896C98.4274 7.14481 98.8586 6.63369 99.4194 6.29511C100.013 5.94001 100.697 5.75875 101.391 5.77264H101.39Z" fill="#12161C"/>
</svg>
