<svg width="91" height="31" viewBox="0 0 91 31" fill="none" xmlns="http://www.w3.org/2000/svg">
<path d="M23.1631 20V8.8H30.1151V10.464H24.8271V13.168H29.0831V14.832H24.8271V18.336H30.1151V20H23.1631ZM36.1059 13.664H34.4259L34.4179 20H32.7539L32.7619 13.664H31.4899V12H32.7619L32.7539 9.488H34.4179L34.4259 12H36.1059V13.664ZM44.7381 14.984V20H43.0741V15.392C43.0741 15.0347 42.9861 14.7093 42.8101 14.416C42.6395 14.1227 42.4075 13.8907 42.1141 13.72C41.8261 13.544 41.5008 13.456 41.1381 13.456C40.7861 13.456 40.4635 13.544 40.1701 13.72C39.8768 13.8907 39.6421 14.1227 39.4661 14.416C39.2901 14.7093 39.2021 15.0347 39.2021 15.392V20H37.5381V8H39.2021V12.848C39.4795 12.5173 39.8208 12.256 40.2261 12.064C40.6315 11.872 41.0688 11.776 41.5381 11.776C42.1301 11.776 42.6688 11.92 43.1541 12.208C43.6395 12.496 44.0235 12.8827 44.3061 13.368C44.5941 13.8533 44.7381 14.392 44.7381 14.984ZM49.6988 20.208C48.9628 20.208 48.2908 20.0187 47.6828 19.64C47.0801 19.2613 46.5974 18.7547 46.2348 18.12C45.8774 17.48 45.6988 16.7733 45.6988 16C45.6988 15.4133 45.8028 14.8667 46.0108 14.36C46.2188 13.848 46.5041 13.4 46.8668 13.016C47.2348 12.6267 47.6614 12.3227 48.1468 12.104C48.6321 11.8853 49.1494 11.776 49.6988 11.776C50.3121 11.776 50.8748 11.904 51.3868 12.16C51.8988 12.4107 52.3361 12.76 52.6988 13.208C53.0614 13.6507 53.3281 14.1627 53.4988 14.744C53.6694 15.32 53.7201 15.9333 53.6508 16.584H47.4828C47.5521 16.952 47.6854 17.2853 47.8828 17.584C48.0854 17.8773 48.3414 18.1093 48.6508 18.28C48.9654 18.4507 49.3148 18.5387 49.6988 18.544C50.1041 18.544 50.4721 18.4427 50.8028 18.24C51.1388 18.0373 51.4134 17.7573 51.6268 17.4L53.3148 17.792C52.9948 18.5013 52.5121 19.0827 51.8668 19.536C51.2214 19.984 50.4988 20.208 49.6988 20.208ZM47.4268 15.312H51.9708C51.9174 14.928 51.7814 14.5813 51.5628 14.272C51.3494 13.9573 51.0801 13.7093 50.7548 13.528C50.4348 13.3413 50.0828 13.248 49.6988 13.248C49.3201 13.248 48.9681 13.3387 48.6428 13.52C48.3228 13.7013 48.0561 13.9493 47.8428 14.264C47.6348 14.5733 47.4961 14.9227 47.4268 15.312ZM54.9756 20V12H56.6396V12.848C56.917 12.5173 57.2583 12.256 57.6636 12.064C58.069 11.872 58.5063 11.776 58.9756 11.776C59.2743 11.776 59.5703 11.816 59.8636 11.896L59.1996 13.576C58.9916 13.496 58.7836 13.456 58.5756 13.456C58.2236 13.456 57.901 13.544 57.6076 13.72C57.3143 13.8907 57.0796 14.1227 56.9036 14.416C56.7276 14.7093 56.6396 15.0347 56.6396 15.392V20H54.9756ZM63.9331 20.208C63.1971 20.208 62.5251 20.0187 61.9171 19.64C61.3145 19.2613 60.8318 18.7547 60.4691 18.12C60.1118 17.48 59.9331 16.7733 59.9331 16C59.9331 15.4133 60.0371 14.8667 60.2451 14.36C60.4531 13.848 60.7385 13.4 61.1011 13.016C61.4691 12.6267 61.8958 12.3227 62.3811 12.104C62.8665 11.8853 63.3838 11.776 63.9331 11.776C64.5465 11.776 65.1091 11.904 65.6211 12.16C66.1331 12.4107 66.5705 12.76 66.9331 13.208C67.2958 13.6507 67.5625 14.1627 67.7331 14.744C67.9038 15.32 67.9545 15.9333 67.8851 16.584H61.7171C61.7865 16.952 61.9198 17.2853 62.1171 17.584C62.3198 17.8773 62.5758 18.1093 62.8851 18.28C63.1998 18.4507 63.5491 18.5387 63.9331 18.544C64.3385 18.544 64.7065 18.4427 65.0371 18.24C65.3731 18.0373 65.6478 17.7573 65.8611 17.4L67.5491 17.792C67.2291 18.5013 66.7465 19.0827 66.1011 19.536C65.4558 19.984 64.7331 20.208 63.9331 20.208ZM61.6611 15.312H66.2051C66.1518 14.928 66.0158 14.5813 65.7971 14.272C65.5838 13.9573 65.3145 13.7093 64.9891 13.528C64.6691 13.3413 64.3171 13.248 63.9331 13.248C63.5545 13.248 63.2025 13.3387 62.8771 13.52C62.5571 13.7013 62.2905 13.9493 62.0771 14.264C61.8691 14.5733 61.7305 14.9227 61.6611 15.312ZM68.7338 17V12H70.3978V16.592C70.3978 16.9493 70.4858 17.2747 70.6618 17.568C70.8378 17.8613 71.0724 18.096 71.3658 18.272C71.6591 18.4427 71.9818 18.528 72.3338 18.528C72.6911 18.528 73.0138 18.4427 73.3018 18.272C73.5951 18.096 73.8271 17.8613 73.9978 17.568C74.1738 17.2747 74.2618 16.9493 74.2618 16.592V12H75.9258L75.9338 20H74.2698L74.2618 19.136C73.9898 19.4667 73.6511 19.728 73.2458 19.92C72.8404 20.112 72.4058 20.208 71.9418 20.208C71.3498 20.208 70.8111 20.064 70.3258 19.776C69.8404 19.488 69.4538 19.1013 69.1658 18.616C68.8778 18.1307 68.7338 17.592 68.7338 17ZM77.5381 20V12H79.2021V12.848C79.4795 12.5173 79.8181 12.256 80.2181 12.064C80.6235 11.872 81.0608 11.776 81.5301 11.776C82.1008 11.776 82.6261 11.9147 83.1061 12.192C83.5861 12.464 83.9675 12.8267 84.2501 13.28C84.5328 12.8267 84.9088 12.464 85.3781 12.192C85.8528 11.9147 86.3755 11.776 86.9461 11.776C87.5381 11.776 88.0768 11.92 88.5621 12.208C89.0475 12.496 89.4341 12.8827 89.7221 13.368C90.0101 13.8533 90.1541 14.392 90.1541 14.984V20H88.4901V15.408C88.4901 15.056 88.4048 14.7333 88.2341 14.44C88.0635 14.1467 87.8341 13.9093 87.5461 13.728C87.2581 13.5467 86.9381 13.456 86.5861 13.456C86.2341 13.456 85.9141 13.5413 85.6261 13.712C85.3381 13.8827 85.1088 14.1147 84.9381 14.408C84.7675 14.7013 84.6821 15.0347 84.6821 15.408V20H83.0181V15.408C83.0181 15.0347 82.9328 14.7013 82.7621 14.408C82.5915 14.1147 82.3595 13.8827 82.0661 13.712C81.7781 13.5413 81.4581 13.456 81.1061 13.456C80.7595 13.456 80.4395 13.5467 80.1461 13.728C79.8581 13.9093 79.6288 14.1467 79.4581 14.44C79.2875 14.7333 79.2021 15.056 79.2021 15.408V20H77.5381Z" fill="#1F1F2C"/>
<path d="M9.19238 0L9 0.692809V20.7965L9.19238 21L18 15.4839L9.19238 0Z" fill="#343434"/>
<path d="M9 0L0 15.4839L9 21V11.2423V0Z" fill="#8C8C8C"/>
<path d="M9.10936 23.4503L9 23.5887V30.6683L9.10936 31L18 18L9.10936 23.4503Z" fill="#3C3C3B"/>
<path d="M9 31V23.4503L0 18L9 31Z" fill="#8C8C8C"/>
<path d="M9 21L18 15.347L9 11V21Z" fill="#141414"/>
<path d="M0 15.347L9 21V11L0 15.347Z" fill="#393939"/>
</svg>
