<svg width="89" height="31" viewBox="0 0 89 31" fill="none" xmlns="http://www.w3.org/2000/svg">
<path d="M23.5069 20V8.8H30.4589V10.464H25.1709V13.168H29.4269V14.832H25.1709V18.336H30.4589V20H23.5069ZM36.4496 13.664H34.7696L34.7616 20H33.0976L33.1056 13.664H31.8336V12H33.1056L33.0976 9.488H34.7616L34.7696 12H36.4496V13.664ZM45.0819 14.984V20H43.4179V15.392C43.4179 15.0347 43.3299 14.7093 43.1539 14.416C42.9832 14.1227 42.7512 13.8907 42.4579 13.72C42.1699 13.544 41.8445 13.456 41.4819 13.456C41.1299 13.456 40.8072 13.544 40.5139 13.72C40.2205 13.8907 39.9859 14.1227 39.8099 14.416C39.6339 14.7093 39.5459 15.0347 39.5459 15.392V20H37.8819V8H39.5459V12.848C39.8232 12.5173 40.1645 12.256 40.5699 12.064C40.9752 11.872 41.4125 11.776 41.8819 11.776C42.4739 11.776 43.0125 11.92 43.4979 12.208C43.9832 12.496 44.3672 12.8827 44.6499 13.368C44.9379 13.8533 45.0819 14.392 45.0819 14.984ZM50.0425 20.208C49.3065 20.208 48.6345 20.0187 48.0265 19.64C47.4238 19.2613 46.9412 18.7547 46.5785 18.12C46.2212 17.48 46.0425 16.7733 46.0425 16C46.0425 15.4133 46.1465 14.8667 46.3545 14.36C46.5625 13.848 46.8478 13.4 47.2105 13.016C47.5785 12.6267 48.0052 12.3227 48.4905 12.104C48.9758 11.8853 49.4932 11.776 50.0425 11.776C50.6558 11.776 51.2185 11.904 51.7305 12.16C52.2425 12.4107 52.6798 12.76 53.0425 13.208C53.4052 13.6507 53.6718 14.1627 53.8425 14.744C54.0132 15.32 54.0638 15.9333 53.9945 16.584H47.8265C47.8958 16.952 48.0292 17.2853 48.2265 17.584C48.4292 17.8773 48.6852 18.1093 48.9945 18.28C49.3092 18.4507 49.6585 18.5387 50.0425 18.544C50.4478 18.544 50.8158 18.4427 51.1465 18.24C51.4825 18.0373 51.7572 17.7573 51.9705 17.4L53.6585 17.792C53.3385 18.5013 52.8558 19.0827 52.2105 19.536C51.5652 19.984 50.8425 20.208 50.0425 20.208ZM47.7705 15.312H52.3145C52.2612 14.928 52.1252 14.5813 51.9065 14.272C51.6932 13.9573 51.4238 13.7093 51.0985 13.528C50.7785 13.3413 50.4265 13.248 50.0425 13.248C49.6638 13.248 49.3118 13.3387 48.9865 13.52C48.6665 13.7013 48.3998 13.9493 48.1865 14.264C47.9785 14.5733 47.8398 14.9227 47.7705 15.312ZM55.3194 20V12H56.9834V12.848C57.2607 12.5173 57.602 12.256 58.0074 12.064C58.4127 11.872 58.85 11.776 59.3194 11.776C59.618 11.776 59.914 11.816 60.2074 11.896L59.5434 13.576C59.3354 13.496 59.1274 13.456 58.9194 13.456C58.5674 13.456 58.2447 13.544 57.9514 13.72C57.658 13.8907 57.4234 14.1227 57.2474 14.416C57.0714 14.7093 56.9834 15.0347 56.9834 15.392V20H55.3194ZM61.1319 12H62.7959V20H61.1319V12ZM61.9799 10.84C61.7239 10.84 61.5105 10.7573 61.3399 10.592C61.1692 10.4267 61.0839 10.2187 61.0839 9.968C61.0839 9.72267 61.1692 9.51733 61.3399 9.352C61.5105 9.18133 61.7212 9.096 61.9719 9.096C62.2172 9.096 62.4252 9.18133 62.5959 9.352C62.7665 9.51733 62.8519 9.72267 62.8519 9.968C62.8519 10.2187 62.7665 10.4267 62.5959 10.592C62.4305 10.7573 62.2252 10.84 61.9799 10.84ZM64.39 17V12H66.054V16.592C66.054 16.9493 66.142 17.2747 66.318 17.568C66.494 17.8613 66.7287 18.096 67.022 18.272C67.3153 18.4427 67.638 18.528 67.99 18.528C68.3473 18.528 68.67 18.4427 68.958 18.272C69.2513 18.096 69.4833 17.8613 69.654 17.568C69.83 17.2747 69.918 16.9493 69.918 16.592V12H71.582L71.59 20H69.926L69.918 19.136C69.646 19.4667 69.3073 19.728 68.902 19.92C68.4967 20.112 68.062 20.208 67.598 20.208C67.006 20.208 66.4673 20.064 65.982 19.776C65.4967 19.488 65.11 19.1013 64.822 18.616C64.534 18.1307 64.39 17.592 64.39 17ZM73.1944 20V12H74.8584V12.848C75.1357 12.5173 75.4744 12.256 75.8744 12.064C76.2797 11.872 76.717 11.776 77.1864 11.776C77.757 11.776 78.2824 11.9147 78.7624 12.192C79.2424 12.464 79.6237 12.8267 79.9064 13.28C80.189 12.8267 80.565 12.464 81.0344 12.192C81.509 11.9147 82.0317 11.776 82.6024 11.776C83.1944 11.776 83.733 11.92 84.2184 12.208C84.7037 12.496 85.0904 12.8827 85.3784 13.368C85.6664 13.8533 85.8104 14.392 85.8104 14.984V20H84.1464V15.408C84.1464 15.056 84.061 14.7333 83.8904 14.44C83.7197 14.1467 83.4904 13.9093 83.2024 13.728C82.9144 13.5467 82.5944 13.456 82.2424 13.456C81.8904 13.456 81.5704 13.5413 81.2824 13.712C80.9944 13.8827 80.765 14.1147 80.5944 14.408C80.4237 14.7013 80.3384 15.0347 80.3384 15.408V20H78.6744V15.408C78.6744 15.0347 78.589 14.7013 78.4184 14.408C78.2477 14.1147 78.0157 13.8827 77.7224 13.712C77.4344 13.5413 77.1144 13.456 76.7624 13.456C76.4157 13.456 76.0957 13.5467 75.8024 13.728C75.5144 13.9093 75.285 14.1467 75.1144 14.44C74.9437 14.7333 74.8584 15.056 74.8584 15.408V20H73.1944Z" fill="#1F1F2C"/>
<path d="M9.19238 0L9 0.692809V20.7965L9.19238 21L18 15.4839L9.19238 0Z" fill="#343434"/>
<path d="M9 0L0 15.4839L9 21V11.2423V0Z" fill="#8C8C8C"/>
<path d="M9.10936 23.4503L9 23.5887V30.6683L9.10936 31L18 18L9.10936 23.4503Z" fill="#3C3C3B"/>
<path d="M9 31V23.4503L0 18L9 31Z" fill="#8C8C8C"/>
<path d="M9 21L18 15.347L9 11V21Z" fill="#141414"/>
<path d="M0 15.347L9 21V11L0 15.347Z" fill="#393939"/>
</svg>
