<svg width="1440" height="720" viewBox="0 0 1440 720" fill="none" xmlns="http://www.w3.org/2000/svg">
<g clipPath="url(#clip0_603_4036)">
<rect width="1440" height="720" fill="#F1F4F8"/>
<path d="M102 -63L119.456 -62.0769L136.721 -59.3179L153.606 -54.753L169.925 -48.4324L185.5 -40.4253L200.16 -30.8194L213.745 -19.7199L226.105 -7.2485L237.106 6.45818L246.626 21.25L254.562 36.9649L260.826 53.4306L265.351 70.4669L268.085 87.8869L269 105.5L268.085 123.113L265.351 140.533L260.826 157.569L254.562 174.035L246.626 189.75L237.106 204.542L226.105 218.249L213.745 230.72L200.16 241.819L185.5 251.425L169.925 259.432L153.606 265.753L136.721 270.318L119.456 273.077L102 274L84.5437 273.077L67.2787 270.318L50.3942 265.753L34.075 259.432L18.5 251.425L3.83987 241.819L-9.74481 230.72L-22.1052 218.249L-33.1058 204.542L-42.6262 189.75L-50.5621 174.035L-56.8264 157.569L-61.3506 140.533L-64.0852 123.113L-65 105.5L-64.0852 87.8869L-61.3506 70.4669L-56.8264 53.4306L-50.5621 36.9649L-42.6262 21.25L-33.1058 6.45818L-22.1052 -7.2485L-9.74481 -19.7199L3.83987 -30.8194L18.5 -40.4253L34.075 -48.4324L50.3942 -54.753L67.2787 -59.3179L84.5437 -62.0769L102 -63Z" fill="#E9F0FF" fill-opacity="0.7"/>
<path d="M1432.75 309.664L1443.08 320.445L1452.21 332.256L1460.05 344.967L1466.51 358.441L1471.52 372.532L1475.02 387.086L1476.98 401.944L1477.37 416.944L1476.19 431.923L1473.45 446.717L1469.17 461.161L1463.41 475.098L1456.22 488.374L1447.69 500.842L1437.91 512.365L1426.98 522.814L1415.03 532.076L1402.19 540.046L1388.59 546.639L1374.4 551.781L1359.76 555.417L1344.85 557.508L1329.81 558.032L1314.82 556.984L1300.04 554.377L1285.64 550.241L1271.76 544.622L1258.57 537.582L1246.2 529.199L1234.79 519.564L1224.46 508.783L1215.33 496.972L1207.49 484.261L1201.02 470.786L1196.02 456.696L1192.51 442.143L1190.55 427.284L1190.16 412.284L1191.34 397.305L1194.09 382.512L1198.36 368.067L1204.12 354.13L1211.31 340.854L1219.84 328.386L1229.63 316.863L1240.55 306.413L1252.5 297.152L1265.35 289.182L1278.94 282.589L1293.13 277.447L1307.77 273.811L1322.69 271.72L1337.73 271.196L1352.71 272.244L1367.49 274.851L1381.9 278.987L1395.77 284.606L1408.97 291.646L1421.34 300.029L1432.75 309.664Z" stroke="#EBF1FD" stroke-width="40"/>
<path d="M693.611 680.365L698.728 694.391L702.338 708.878L704.4 723.67L704.892 738.605L703.809 753.52L701.16 768.253L696.975 782.644L691.297 796.534L684.187 809.771L675.723 822.21L665.997 833.713L655.113 844.153L643.192 853.415L630.365 861.396L616.772 868.008L602.563 873.177L587.895 876.846L572.93 878.975L557.833 879.54L542.77 878.536L527.908 875.975L513.409 871.886L499.433 866.315L486.133 859.325L473.654 850.992L462.131 841.409L451.69 830.682L442.444 818.928L434.494 806.276L427.924 792.863L422.807 778.837L419.197 764.35L417.135 749.558L416.643 734.623L417.726 719.708L420.375 704.975L424.56 690.584L430.238 676.694L437.348 663.457L445.812 651.018L455.538 639.515L466.422 629.075L478.343 619.813L491.17 611.832L504.763 605.22L518.972 600.051L533.64 596.382L548.605 594.253L563.702 593.688L578.765 594.692L593.627 597.253L608.126 601.342L622.102 606.913L635.402 613.903L647.882 622.236L659.404 631.819L669.845 642.546L679.091 654.3L687.041 666.952L693.611 680.365Z" stroke="#EBF1FD" stroke-width="40"/>
<path d="M63.9832 473.841C64.2473 472.324 66.0543 471.662 67.2358 472.649L94.4839 495.415C95.6654 496.402 95.3352 498.298 93.8896 498.828L60.5496 511.042C59.1039 511.572 57.6271 510.338 57.8912 508.821L63.9832 473.841Z" fill="#E2D6E9"/>
<path d="M59.279 480.09C59.4771 478.953 60.8324 478.456 61.7185 479.197L88.9666 501.963C89.8527 502.703 89.6051 504.125 88.5209 504.522L55.1809 516.737C54.0966 517.134 52.989 516.209 53.1871 515.071L59.279 480.09Z" stroke="#989AA3"/>
<path d="M1292.13 623.608C1294.75 617.949 1301.08 602.275 1310.12 606.804C1325.7 614.613 1339.44 603.906 1340.94 594" stroke="#ABF0E7" stroke-width="3" stroke-linecap="round"/>
<path d="M102.131 108L94.3727 121.054" stroke="#94D2EB" stroke-width="3" stroke-linecap="round"/>
<path d="M123.816 122.465L102.217 128.555" stroke="#94D2EB" stroke-width="3" stroke-linecap="round"/>
<path d="M113.408 146.877L100.354 139.119" stroke="#94D2EB" stroke-width="3" stroke-linecap="round"/>
<rect x="1334" y="116.254" width="31.0108" height="31.0108" rx="5" transform="rotate(-29.4644 1334 116.254)" fill="#F4D1D3"/>
<rect x="1337.88" y="110.443" width="30.0108" height="30.0108" rx="4.5" transform="rotate(-29.4644 1337.88 110.443)" stroke="#989AA3"/>
</g>
<defs>
<clipPath id="clip0_603_4036">
<rect width="1440" height="720" fill="white"/>
</clipPath>
</defs>
</svg>
