<svg width="19" height="17" viewBox="0 0 19 17" fill="none" xmlns="http://www.w3.org/2000/svg">
<path fill-rule="evenodd" clip-rule="evenodd" d="M0.960973 6.02483L1.40668 11.8582C1.56078 14.2597 3.5753 16.1385 6.02662 16.1667H12.5067C14.9584 16.1391 16.9736 14.2602 17.1278 11.8582L17.5735 6.02483C17.6883 4.74533 17.2552 3.47667 16.3783 2.52334C15.5013 1.57001 14.2596 1.01808 12.9512 1H5.5821C4.27388 1.0184 3.03249 1.57047 2.15579 2.52377C1.27909 3.47706 0.846192 4.74553 0.960973 6.02483Z" stroke="white" stroke-width="1.5" stroke-linecap="round" stroke-linejoin="round"/>
<path d="M12.8323 5.66675C12.8323 6.91718 12.1527 8.07262 11.0495 8.69784C9.94623 9.32305 8.587 9.32305 7.48377 8.69784C6.38054 8.07262 5.70093 6.91718 5.70093 5.66675" stroke="white" stroke-width="1.5" stroke-linecap="round" stroke-linejoin="round"/>
</svg>
