<svg width="231" height="238" viewBox="0 0 231 238" fill="none" xmlns="http://www.w3.org/2000/svg">
<path fill-rule="evenodd" clip-rule="evenodd" d="M70.7415 193C131.824 193 181.341 144.019 181.341 83.5977C181.341 50.0719 166.096 20.0683 142.089 0H40C21.1438 0 11.7157 0 5.85786 5.85786C0 11.7157 0 21.1438 0 40V167.698C19.1742 183.497 43.8359 193 70.7415 193Z" fill="#3D7994" fill-opacity="0.03"/>
<path fill-rule="evenodd" clip-rule="evenodd" d="M70.7415 193C131.824 193 181.341 144.019 181.341 83.5977C181.341 50.0719 166.096 20.0683 142.089 0H40C21.1438 0 11.7157 0 5.85786 5.85786C0 11.7157 0 21.1438 0 40V167.698C19.1742 183.497 43.8359 193 70.7415 193Z" fill="#DEF5FF" fill-opacity="0.05"/>
<path fill-rule="evenodd" clip-rule="evenodd" d="M89.8178 238C167.372 238 230.241 177.598 230.241 103.089C230.241 61.7467 210.885 24.7474 180.404 0H40C21.1438 0 11.7157 0 5.85786 5.85786C0 11.7157 0 21.1438 0 40L0 206.798C24.3448 226.281 55.6567 238 89.8178 238Z" fill="#DEF5FF" fill-opacity="0.2"/>
</svg>
