<svg width="25" height="25" viewBox="0 0 25 25" fill="none" xmlns="http://www.w3.org/2000/svg">
<path d="M1.75 17.4283C1.75 17.0141 1.41421 16.6783 1 16.6783C0.585786 16.6783 0.25 17.0141 0.25 17.4283H1.75ZM1 19.0712H0.25H1ZM24.75 17.4283C24.75 17.0141 24.4142 16.6783 24 16.6783C23.5858 16.6783 23.25 17.0141 23.25 17.4283H24.75ZM11.9145 18.6029C11.6557 18.9264 11.7081 19.3983 12.0316 19.6571C12.355 19.9158 12.827 19.8634 13.0858 19.5399L11.9145 18.6029ZM19.6572 11.3257C19.916 11.0022 19.8635 10.5302 19.5401 10.2715C19.2166 10.0127 18.7446 10.0652 18.4859 10.3886L19.6572 11.3257ZM11.9143 19.5399C12.1731 19.8634 12.6451 19.9158 12.9685 19.6571C13.292 19.3983 13.3444 18.9264 13.0856 18.6029L11.9143 19.5399ZM6.51422 10.3886C6.25547 10.0652 5.7835 10.0127 5.46005 10.2715C5.1366 10.5302 5.08416 11.0022 5.34292 11.3257L6.51422 10.3886ZM11.7499 19.0714C11.7499 19.4856 12.0857 19.8214 12.4999 19.8214C12.9141 19.8214 13.2499 19.4856 13.2499 19.0714L11.7499 19.0714ZM13.2499 1C13.2499 0.585786 12.9141 0.25 12.4999 0.25C12.0857 0.25 11.7499 0.585786 11.7499 1L13.2499 1ZM0.25 17.4283L0.25 19.0712H1.75L1.75 17.4283H0.25ZM0.25 19.0712C0.25 22.2074 2.79238 24.7498 5.92857 24.7498V23.2498C3.62081 23.2498 1.75 21.379 1.75 19.0712H0.25ZM5.92857 24.7498L19.0714 24.7498V23.2498L5.92857 23.2498V24.7498ZM19.0714 24.7498C22.2076 24.7498 24.75 22.2074 24.75 19.0712H23.25C23.25 21.379 21.3792 23.2498 19.0714 23.2498V24.7498ZM24.75 19.0712V17.4283H23.25V19.0712H24.75ZM13.0858 19.5399L19.6572 11.3257L18.4859 10.3886L11.9145 18.6029L13.0858 19.5399ZM13.0856 18.6029L6.51422 10.3886L5.34292 11.3257L11.9143 19.5399L13.0856 18.6029ZM13.2499 19.0714L13.2499 1L11.7499 1L11.7499 19.0714L13.2499 19.0714Z" fill="white"/>
</svg>
