<svg width="19" height="20" viewBox="0 0 19 20" fill="none" xmlns="http://www.w3.org/2000/svg">
<path d="M14 16.4594C14 17.1192 13.751 17.7521 13.3077 18.2187C12.8644 18.6853 12.2632 18.9474 11.6364 18.9474H3.36364C2.73676 18.9474 2.13556 18.6853 1.69229 18.2187C1.24903 17.7521 1 17.1192 1 16.4594V7.75122C1 7.09135 1.24903 6.45851 1.69229 5.99191C2.13556 5.52532 2.73676 5.26318 3.36364 5.26318V6.5072C3.0502 6.5072 2.7496 6.63827 2.52796 6.87157C2.30633 7.10487 2.18182 7.42129 2.18182 7.75122V16.4594C2.18182 16.7893 2.30633 17.1057 2.52796 17.339C2.7496 17.5723 3.0502 17.7034 3.36364 17.7034H11.6364C11.9498 17.7034 12.2504 17.5723 12.472 17.339C12.6937 17.1057 12.8182 16.7893 12.8182 16.4594H14Z" fill="#5B626E"/>
<path d="M7.36364 2.29675C7.0502 2.29675 6.7496 2.42782 6.52796 2.66112C6.30633 2.89442 6.18182 3.21084 6.18182 3.54077V12.2489C6.18182 12.5788 6.30633 12.8953 6.52796 13.1286C6.7496 13.3619 7.0502 13.4929 7.36364 13.4929H15.6364C15.9498 13.4929 16.2504 13.3619 16.472 13.1286C16.6937 12.8953 16.8182 12.5788 16.8182 12.2489V3.54077C16.8182 3.21084 16.6937 2.89442 16.472 2.66112C16.2504 2.42782 15.9498 2.29675 15.6364 2.29675H7.36364ZM7.36364 1.05273H15.6364C16.2632 1.05273 16.8644 1.31487 17.3077 1.78146C17.751 2.24806 18 2.8809 18 3.54077V12.2489C18 12.9088 17.751 13.5416 17.3077 14.0082C16.8644 14.4748 16.2632 14.7369 15.6364 14.7369H7.36364C6.73676 14.7369 6.13556 14.4748 5.69229 14.0082C5.24903 13.5416 5 12.9088 5 12.2489V3.54077C5 2.8809 5.24903 2.24806 5.69229 1.78146C6.13556 1.31487 6.73676 1.05273 7.36364 1.05273Z" fill="#5B626E"/>
</svg>
