<svg width="335" height="41" viewBox="0 0 335 41" fill="none" xmlns="http://www.w3.org/2000/svg">
<rect x="0.5" y="1.49542" width="334" height="39" rx="7.5" fill="#F9FBFC"/>
<path d="M111.446 19.6081H110.875V19.5787H104.5V22.412H108.503C107.919 24.0613 106.35 25.2453 104.5 25.2453C102.153 25.2453 100.25 23.3424 100.25 20.9953C100.25 18.6483 102.153 16.7453 104.5 16.7453C105.583 16.7453 106.569 17.154 107.32 17.8216L109.323 15.8181C108.058 14.6391 106.366 13.912 104.5 13.912C100.588 13.912 97.4167 17.0835 97.4167 20.9953C97.4167 24.9071 100.588 28.0787 104.5 28.0787C108.412 28.0787 111.583 24.9071 111.583 20.9953C111.583 20.5204 111.534 20.0568 111.446 19.6081Z" fill="#FFC107"/>
<path d="M98.2334 17.6984L100.561 19.4051C101.19 17.8461 102.715 16.7453 104.5 16.7453C105.583 16.7453 106.569 17.154 107.32 17.8216L109.323 15.8181C108.058 14.6391 106.366 13.912 104.5 13.912C101.779 13.912 99.4198 15.448 98.2334 17.6984Z" fill="#FF3D00"/>
<path d="M104.5 28.0787C106.33 28.0787 107.992 27.3785 109.249 26.2399L107.057 24.3847C106.322 24.9437 105.423 25.2461 104.5 25.2454C102.658 25.2454 101.093 24.0706 100.504 22.4312L98.1941 24.2108C99.3664 26.5048 101.747 28.0787 104.5 28.0787Z" fill="#4CAF50"/>
<path d="M111.446 19.6081H110.875V19.5787H104.5V22.4121H108.503C108.224 23.197 107.721 23.883 107.056 24.3851L107.057 24.3844L109.249 26.2395C109.094 26.3805 111.583 24.5371 111.583 20.9954C111.583 20.5205 111.534 20.0569 111.446 19.6081Z" fill="#1976D2"/>
<path d="M127.263 25.6774C126.74 25.6774 126.234 25.5957 125.744 25.4324C125.259 25.269 124.834 25.0357 124.47 24.7324C124.106 24.429 123.849 24.0674 123.7 23.6474L124.617 23.3044C124.72 23.5937 124.906 23.8434 125.177 24.0534C125.452 24.2587 125.772 24.4174 126.136 24.5294C126.505 24.6414 126.88 24.6974 127.263 24.6974C127.711 24.6974 128.129 24.6227 128.516 24.4734C128.903 24.324 129.216 24.1164 129.454 23.8504C129.692 23.5797 129.811 23.2624 129.811 22.8984C129.811 22.5297 129.687 22.2264 129.44 21.9884C129.193 21.7504 128.873 21.5637 128.481 21.4284C128.094 21.2884 127.688 21.181 127.263 21.1064C126.596 20.9897 125.996 20.831 125.464 20.6304C124.937 20.4297 124.519 20.1474 124.211 19.7834C123.903 19.4147 123.749 18.9294 123.749 18.3274C123.749 17.7627 123.912 17.2727 124.239 16.8574C124.566 16.442 124.995 16.12 125.527 15.8914C126.064 15.6627 126.642 15.5484 127.263 15.5484C127.772 15.5484 128.269 15.6277 128.754 15.7864C129.239 15.945 129.666 16.176 130.035 16.4794C130.408 16.7827 130.677 17.1537 130.84 17.5924L129.909 17.9284C129.806 17.6344 129.617 17.3847 129.342 17.1794C129.071 16.9694 128.754 16.8107 128.39 16.7034C128.026 16.5914 127.65 16.5354 127.263 16.5354C126.82 16.5307 126.404 16.6054 126.017 16.7594C125.634 16.9087 125.324 17.1187 125.086 17.3894C124.848 17.6554 124.729 17.968 124.729 18.3274C124.729 18.7474 124.839 19.0717 125.058 19.3004C125.282 19.5244 125.585 19.6924 125.968 19.8044C126.351 19.9164 126.782 20.0167 127.263 20.1054C127.888 20.2127 128.469 20.3807 129.006 20.6094C129.543 20.8334 129.974 21.1344 130.301 21.5124C130.628 21.8857 130.791 22.3477 130.791 22.8984C130.791 23.4584 130.628 23.9484 130.301 24.3684C129.974 24.7837 129.543 25.1057 129.006 25.3344C128.474 25.563 127.893 25.6774 127.263 25.6774ZM132.317 18.4954H133.297V25.4954H132.317V18.4954ZM132.814 17.2704C132.655 17.2704 132.52 17.219 132.408 17.1164C132.3 17.009 132.247 16.876 132.247 16.7174C132.247 16.5587 132.3 16.428 132.408 16.3254C132.52 16.218 132.655 16.1644 132.814 16.1644C132.968 16.1644 133.098 16.218 133.206 16.3254C133.318 16.428 133.374 16.5587 133.374 16.7174C133.374 16.876 133.32 17.009 133.213 17.1164C133.105 17.219 132.972 17.2704 132.814 17.2704ZM140.479 18.4954H141.459V25.7544C141.459 26.2024 141.361 26.6224 141.165 27.0144C140.974 27.4064 140.713 27.7494 140.381 28.0434C140.055 28.342 139.681 28.5754 139.261 28.7434C138.841 28.9114 138.405 28.9954 137.952 28.9954C137.467 28.9954 136.998 28.8834 136.545 28.6594C136.093 28.44 135.698 28.146 135.362 27.7774C135.031 27.4087 134.795 27.0004 134.655 26.5524L135.558 26.1394C135.647 26.4894 135.813 26.8044 136.055 27.0844C136.303 27.369 136.592 27.593 136.923 27.7564C137.259 27.9244 137.602 28.0084 137.952 28.0084C138.274 28.0084 138.585 27.9477 138.883 27.8264C139.187 27.7097 139.457 27.5487 139.695 27.3434C139.938 27.138 140.129 26.8977 140.269 26.6224C140.409 26.3517 140.479 26.0624 140.479 25.7544V24.2074C140.237 24.646 139.908 25.0007 139.492 25.2714C139.082 25.542 138.603 25.6774 138.057 25.6774C137.567 25.6774 137.105 25.5817 136.671 25.3904C136.242 25.199 135.864 24.9354 135.537 24.5994C135.211 24.2587 134.954 23.8667 134.767 23.4234C134.585 22.98 134.494 22.504 134.494 21.9954C134.494 21.4867 134.585 21.0107 134.767 20.5674C134.954 20.1194 135.211 19.7274 135.537 19.3914C135.864 19.0507 136.242 18.7847 136.671 18.5934C137.105 18.402 137.567 18.3064 138.057 18.3064C138.603 18.3064 139.082 18.4417 139.492 18.7124C139.908 18.9784 140.237 19.333 140.479 19.7764V18.4954ZM138.064 24.7254C138.55 24.7254 138.967 24.5994 139.317 24.3474C139.672 24.0954 139.945 23.7617 140.136 23.3464C140.328 22.931 140.423 22.4807 140.423 21.9954C140.423 21.496 140.325 21.041 140.129 20.6304C139.938 20.215 139.665 19.8837 139.31 19.6364C138.956 19.3844 138.54 19.2584 138.064 19.2584C137.588 19.2584 137.154 19.382 136.762 19.6294C136.375 19.872 136.067 20.201 135.838 20.6164C135.61 21.0317 135.495 21.4914 135.495 21.9954C135.495 22.4994 135.612 22.959 135.845 23.3744C136.079 23.785 136.389 24.114 136.776 24.3614C137.168 24.604 137.598 24.7254 138.064 24.7254ZM149.249 21.1624V25.4954H148.269V21.3584C148.269 20.9757 148.175 20.628 147.989 20.3154C147.802 20.0027 147.552 19.753 147.24 19.5664C146.927 19.3797 146.579 19.2864 146.197 19.2864C145.819 19.2864 145.471 19.3797 145.154 19.5664C144.841 19.753 144.591 20.0027 144.405 20.3154C144.218 20.628 144.125 20.9757 144.125 21.3584V25.4954H143.145V18.4954H144.125V19.4614C144.372 19.1067 144.694 18.8244 145.091 18.6144C145.487 18.4044 145.919 18.2994 146.386 18.2994C146.913 18.2994 147.394 18.4277 147.828 18.6844C148.262 18.941 148.607 19.2864 148.864 19.7204C149.12 20.1544 149.249 20.635 149.249 21.1624ZM154.014 18.4954H154.994V25.4954H154.014V18.4954ZM154.511 17.2704C154.352 17.2704 154.217 17.219 154.105 17.1164C153.997 17.009 153.944 16.876 153.944 16.7174C153.944 16.5587 153.997 16.428 154.105 16.3254C154.217 16.218 154.352 16.1644 154.511 16.1644C154.665 16.1644 154.795 16.218 154.903 16.3254C155.015 16.428 155.071 16.5587 155.071 16.7174C155.071 16.876 155.017 17.009 154.91 17.1164C154.802 17.219 154.669 17.2704 154.511 17.2704ZM162.757 21.1624V25.4954H161.777V21.3584C161.777 20.9757 161.683 20.628 161.497 20.3154C161.31 20.0027 161.06 19.753 160.748 19.5664C160.435 19.3797 160.087 19.2864 159.705 19.2864C159.327 19.2864 158.979 19.3797 158.662 19.5664C158.349 19.753 158.099 20.0027 157.913 20.3154C157.726 20.628 157.633 20.9757 157.633 21.3584V25.4954H156.653V18.4954H157.633V19.4614C157.88 19.1067 158.202 18.8244 158.599 18.6144C158.995 18.4044 159.427 18.2994 159.894 18.2994C160.421 18.2994 160.902 18.4277 161.336 18.6844C161.77 18.941 162.115 19.2864 162.372 19.7204C162.628 20.1544 162.757 20.635 162.757 21.1624ZM170.455 25.4954H169.447L167.102 18.4954H168.061L169.965 24.1374L171.855 18.4954H172.891L174.781 24.1374L176.671 18.4954H177.637L175.292 25.4954H174.277L172.359 19.7974L170.455 25.4954ZM178.801 18.4954H179.781V25.4954H178.801V18.4954ZM179.298 17.2704C179.139 17.2704 179.004 17.219 178.892 17.1164C178.785 17.009 178.731 16.876 178.731 16.7174C178.731 16.5587 178.785 16.428 178.892 16.3254C179.004 16.218 179.139 16.1644 179.298 16.1644C179.452 16.1644 179.583 16.218 179.69 16.3254C179.802 16.428 179.858 16.5587 179.858 16.7174C179.858 16.876 179.804 17.009 179.697 17.1164C179.59 17.219 179.457 17.2704 179.298 17.2704ZM185.044 19.4754H183.371L183.364 25.4954H182.384L182.391 19.4754H181.124V18.4954H182.391L182.384 16.2974H183.364L183.371 18.4954H185.044V19.4754ZM192.397 21.1624V25.4954H191.417V21.3584C191.417 20.9757 191.324 20.628 191.137 20.3154C190.95 20.0027 190.701 19.753 190.388 19.5664C190.075 19.3797 189.728 19.2864 189.345 19.2864C188.967 19.2864 188.619 19.3797 188.302 19.5664C187.989 19.753 187.74 20.0027 187.553 20.3154C187.366 20.628 187.273 20.9757 187.273 21.3584V25.4954H186.293V14.9954H187.273V19.4614C187.52 19.1067 187.842 18.8244 188.239 18.6144C188.636 18.4044 189.067 18.2994 189.534 18.2994C190.061 18.2994 190.542 18.4277 190.976 18.6844C191.41 18.941 191.755 19.2864 192.012 19.7204C192.269 20.1544 192.397 20.635 192.397 21.1624ZM202.727 18.4954H203.707V25.7544C203.707 26.2024 203.609 26.6224 203.413 27.0144C203.222 27.4064 202.961 27.7494 202.629 28.0434C202.303 28.342 201.929 28.5754 201.509 28.7434C201.089 28.9114 200.653 28.9954 200.2 28.9954C199.715 28.9954 199.246 28.8834 198.793 28.6594C198.341 28.44 197.946 28.146 197.61 27.7774C197.279 27.4087 197.043 27.0004 196.903 26.5524L197.806 26.1394C197.895 26.4894 198.061 26.8044 198.303 27.0844C198.551 27.369 198.84 27.593 199.171 27.7564C199.507 27.9244 199.85 28.0084 200.2 28.0084C200.522 28.0084 200.833 27.9477 201.131 27.8264C201.435 27.7097 201.705 27.5487 201.943 27.3434C202.186 27.138 202.377 26.8977 202.517 26.6224C202.657 26.3517 202.727 26.0624 202.727 25.7544V24.2074C202.485 24.646 202.156 25.0007 201.74 25.2714C201.33 25.542 200.851 25.6774 200.305 25.6774C199.815 25.6774 199.353 25.5817 198.919 25.3904C198.49 25.199 198.112 24.9354 197.785 24.5994C197.459 24.2587 197.202 23.8667 197.015 23.4234C196.833 22.98 196.742 22.504 196.742 21.9954C196.742 21.4867 196.833 21.0107 197.015 20.5674C197.202 20.1194 197.459 19.7274 197.785 19.3914C198.112 19.0507 198.49 18.7847 198.919 18.5934C199.353 18.402 199.815 18.3064 200.305 18.3064C200.851 18.3064 201.33 18.4417 201.74 18.7124C202.156 18.9784 202.485 19.333 202.727 19.7764V18.4954ZM200.312 24.7254C200.798 24.7254 201.215 24.5994 201.565 24.3474C201.92 24.0954 202.193 23.7617 202.384 23.3464C202.576 22.931 202.671 22.4807 202.671 21.9954C202.671 21.496 202.573 21.041 202.377 20.6304C202.186 20.215 201.913 19.8837 201.558 19.6364C201.204 19.3844 200.788 19.2584 200.312 19.2584C199.836 19.2584 199.402 19.382 199.01 19.6294C198.623 19.872 198.315 20.201 198.086 20.6164C197.858 21.0317 197.743 21.4914 197.743 21.9954C197.743 22.4994 197.86 22.959 198.093 23.3744C198.327 23.785 198.637 24.114 199.024 24.3614C199.416 24.604 199.846 24.7254 200.312 24.7254ZM208.404 25.6774C207.76 25.6774 207.172 25.5117 206.64 25.1804C206.113 24.849 205.691 24.4057 205.373 23.8504C205.061 23.2904 204.904 22.672 204.904 21.9954C204.904 21.482 204.995 21.0037 205.177 20.5604C205.359 20.1124 205.609 19.7204 205.926 19.3844C206.248 19.0437 206.622 18.7777 207.046 18.5864C207.471 18.395 207.924 18.2994 208.404 18.2994C209.048 18.2994 209.634 18.465 210.161 18.7964C210.693 19.1277 211.116 19.5734 211.428 20.1334C211.746 20.6934 211.904 21.314 211.904 21.9954C211.904 22.504 211.813 22.98 211.631 23.4234C211.449 23.8667 211.197 24.2587 210.875 24.5994C210.558 24.9354 210.187 25.199 209.762 25.3904C209.342 25.5817 208.89 25.6774 208.404 25.6774ZM208.404 24.6974C208.88 24.6974 209.307 24.5737 209.685 24.3264C210.068 24.0744 210.369 23.743 210.588 23.3324C210.812 22.9217 210.924 22.476 210.924 21.9954C210.924 21.5054 210.812 21.055 210.588 20.6444C210.364 20.229 210.061 19.8977 209.678 19.6504C209.3 19.403 208.876 19.2794 208.404 19.2794C207.928 19.2794 207.499 19.4054 207.116 19.6574C206.738 19.9047 206.437 20.2337 206.213 20.6444C205.994 21.055 205.884 21.5054 205.884 21.9954C205.884 22.4994 205.999 22.9567 206.227 23.3674C206.456 23.7734 206.762 24.0977 207.144 24.3404C207.527 24.5784 207.947 24.6974 208.404 24.6974ZM216.102 25.6774C215.458 25.6774 214.87 25.5117 214.338 25.1804C213.81 24.849 213.388 24.4057 213.071 23.8504C212.758 23.2904 212.602 22.672 212.602 21.9954C212.602 21.482 212.693 21.0037 212.875 20.5604C213.057 20.1124 213.306 19.7204 213.624 19.3844C213.946 19.0437 214.319 18.7777 214.744 18.5864C215.168 18.395 215.621 18.2994 216.102 18.2994C216.746 18.2994 217.331 18.465 217.859 18.7964C218.391 19.1277 218.813 19.5734 219.126 20.1334C219.443 20.6934 219.602 21.314 219.602 21.9954C219.602 22.504 219.511 22.98 219.329 23.4234C219.147 23.8667 218.895 24.2587 218.573 24.5994C218.255 24.9354 217.884 25.199 217.46 25.3904C217.04 25.5817 216.587 25.6774 216.102 25.6774ZM216.102 24.6974C216.578 24.6974 217.005 24.5737 217.383 24.3264C217.765 24.0744 218.066 23.743 218.286 23.3324C218.51 22.9217 218.622 22.476 218.622 21.9954C218.622 21.5054 218.51 21.055 218.286 20.6444C218.062 20.229 217.758 19.8977 217.376 19.6504C216.998 19.403 216.573 19.2794 216.102 19.2794C215.626 19.2794 215.196 19.4054 214.814 19.6574C214.436 19.9047 214.135 20.2337 213.911 20.6444C213.691 21.055 213.582 21.5054 213.582 21.9954C213.582 22.4994 213.696 22.9567 213.925 23.3674C214.153 23.7734 214.459 24.0977 214.842 24.3404C215.224 24.5784 215.644 24.6974 216.102 24.6974ZM226.284 18.4954H227.264V25.7544C227.264 26.2024 227.166 26.6224 226.97 27.0144C226.779 27.4064 226.517 27.7494 226.186 28.0434C225.859 28.342 225.486 28.5754 225.066 28.7434C224.646 28.9114 224.21 28.9954 223.757 28.9954C223.272 28.9954 222.803 28.8834 222.35 28.6594C221.897 28.44 221.503 28.146 221.167 27.7774C220.836 27.4087 220.6 27.0004 220.46 26.5524L221.363 26.1394C221.452 26.4894 221.617 26.8044 221.86 27.0844C222.107 27.369 222.397 27.593 222.728 27.7564C223.064 27.9244 223.407 28.0084 223.757 28.0084C224.079 28.0084 224.389 27.9477 224.688 27.8264C224.991 27.7097 225.262 27.5487 225.5 27.3434C225.743 27.138 225.934 26.8977 226.074 26.6224C226.214 26.3517 226.284 26.0624 226.284 25.7544V24.2074C226.041 24.646 225.712 25.0007 225.297 25.2714C224.886 25.542 224.408 25.6774 223.862 25.6774C223.372 25.6774 222.91 25.5817 222.476 25.3904C222.047 25.199 221.669 24.9354 221.342 24.5994C221.015 24.2587 220.759 23.8667 220.572 23.4234C220.39 22.98 220.299 22.504 220.299 21.9954C220.299 21.4867 220.39 21.0107 220.572 20.5674C220.759 20.1194 221.015 19.7274 221.342 19.3914C221.669 19.0507 222.047 18.7847 222.476 18.5934C222.91 18.402 223.372 18.3064 223.862 18.3064C224.408 18.3064 224.886 18.4417 225.297 18.7124C225.712 18.9784 226.041 19.333 226.284 19.7764V18.4954ZM223.869 24.7254C224.354 24.7254 224.772 24.5994 225.122 24.3474C225.477 24.0954 225.75 23.7617 225.941 23.3464C226.132 22.931 226.228 22.4807 226.228 21.9954C226.228 21.496 226.13 21.041 225.934 20.6304C225.743 20.215 225.47 19.8837 225.115 19.6364C224.76 19.3844 224.345 19.2584 223.869 19.2584C223.393 19.2584 222.959 19.382 222.567 19.6294C222.18 19.872 221.872 20.201 221.643 20.6164C221.414 21.0317 221.3 21.4914 221.3 21.9954C221.3 22.4994 221.417 22.959 221.65 23.3744C221.883 23.785 222.194 24.114 222.581 24.3614C222.973 24.604 223.402 24.7254 223.869 24.7254ZM228.949 25.4954V14.9954H229.929V25.4954H228.949ZM234.641 25.6774C233.997 25.6774 233.409 25.5117 232.877 25.1804C232.349 24.849 231.927 24.4057 231.61 23.8504C231.297 23.2904 231.141 22.672 231.141 21.9954C231.141 21.482 231.232 21.0037 231.414 20.5604C231.596 20.1124 231.845 19.7204 232.163 19.3844C232.485 19.0437 232.858 18.7777 233.283 18.5864C233.707 18.395 234.16 18.2994 234.641 18.2994C235.159 18.2994 235.635 18.402 236.069 18.6074C236.507 18.8127 236.883 19.0997 237.196 19.4684C237.513 19.837 237.751 20.2687 237.91 20.7634C238.073 21.258 238.141 21.7924 238.113 22.3664H232.177C232.233 22.8097 232.373 23.2064 232.597 23.5564C232.825 23.9064 233.115 24.184 233.465 24.3894C233.819 24.59 234.211 24.6927 234.641 24.6974C235.107 24.6974 235.527 24.576 235.901 24.3334C236.279 24.0907 236.582 23.757 236.811 23.3324L237.805 23.5634C237.525 24.184 237.102 24.6927 236.538 25.0894C235.973 25.4814 235.341 25.6774 234.641 25.6774ZM232.149 21.5754H237.126C237.093 21.1414 236.96 20.7447 236.727 20.3854C236.498 20.0214 236.202 19.732 235.838 19.5174C235.474 19.298 235.075 19.1884 234.641 19.1884C234.207 19.1884 233.81 19.2957 233.451 19.5104C233.091 19.7204 232.797 20.0074 232.569 20.3714C232.34 20.7307 232.2 21.132 232.149 21.5754Z" fill="#989AA3"/>
<rect x="0.5" y="1.49542" width="334" height="39" rx="7.5" stroke="#EFEFF0"/>
</svg>
